<svg id="Capa_1" enable-background="new 0 0 512 512" height="512" viewBox="0 0 512 512" width="512" xmlns="http://www.w3.org/2000/svg"><g><path d="m512 256c0 24.73-3.51 48.63-10.05 71.25-3.24 11.21-31.417 17.455-36.097 27.965-9.89 22.28-22.692 14.542-38.242 32.922-4.64 5.5-9.51 10.8-14.6 15.89-3.1 3.1 17.739 39.094 14.489 42.034l-.01.01c-5.13 4.63-10.45 9.06-15.95 13.27-13.31 10.21-40.226-4.659-55.426 2.792-1.83.9-3.68 1.78-5.54 2.64-11.09 5.12-10.044 33.258-21.924 36.758-23.03 6.819-47.42 10.469-72.65 10.469-38.25 0-74.55-8.39-107.14-23.44-40.16-18.52-74.7-47.15-100.36-82.61-30.51-42.15-48.5-93.95-48.5-149.95 0-141.38 114.62-256 256-256s256 114.62 256 256z" fill="#95d6a4"/><g><circle cx="352.29" cy="269.586" fill="#ffd064" r="70.332"/><g fill="#ffc250"><circle cx="352.29" cy="269.586" r="38.424"/><path d="m363.768 338.986c-3.73.62-7.57.94-11.48.94-38.84 0-70.33-31.49-70.33-70.34 0-38.84 31.49-70.33 70.33-70.33 3.91 0 7.75.32 11.48.94-33.39 5.47-58.86 34.45-58.86 69.39s25.47 63.93 58.86 69.4z"/></g></g><g><path d="m501.95 327.25c-13.41 46.37-39.57 87.32-74.45 118.81-22.58-11.71-38.01-35.29-38.01-62.48 0-38.85 31.49-70.34 70.33-70.34 15.8 0 30.39 5.21 42.13 14.01z" fill="#ffd064"/><g fill="#ffc250"><path d="m490.04 359.85c-9.89 22.28-22.87 42.89-38.42 61.27-17.28-3.75-30.22-19.13-30.22-37.54 0-21.22 17.2-38.43 38.42-38.43 12.26 0 23.19 5.75 30.22 14.7z"/><path d="m437.02 437.01c-3.1 3.1-6.27 6.11-9.52 9.05l-.01.01c-22.57-11.71-38-35.3-38-62.49 0-38.84 31.49-70.33 70.33-70.33 3.91 0 7.75.32 11.48.94-33.39 5.47-58.86 34.45-58.86 69.39 0 21.38 9.53 40.53 24.58 53.43z"/></g></g><path d="m412.27 452.05c0 2.5-.25 4.93-.73 7.29-13.313 10.208-27.66 19.126-42.858 26.583-1.835.9-10.186-4.724-12.045-3.867l-8.17 6.504h-299.967v-.3c-8.98-1.14-16.95-5.54-22.67-11.99-5.73-6.44-9.2-14.93-9.2-24.22 0-18.58 13.9-33.92 31.87-36.2v-143.69c0-45.82 18.58-87.31 48.61-117.34 30.03-30.04 71.51-48.61 117.34-48.61 91.66 0 165.96 74.3 165.96 165.95v143.69c8.98 1.14 16.95 5.55 22.67 11.99s9.19 14.92 9.19 24.21z" fill="#9d6b6b"/><path d="m263.737 113.646c-26.01 8.075-49.276 22.377-68.06 41.162-30.033 30.033-48.607 71.523-48.607 117.346v143.696c-17.966 2.275-31.859 17.616-31.859 36.201 0 9.292 3.473 17.776 9.192 24.214 5.719 6.448 13.684 10.849 22.667 11.997v.3h-98.572v-.3c-8.983-1.148-16.948-5.549-22.667-11.997-5.719-6.438-9.192-14.922-9.192-24.214 0-18.585 13.893-33.925 31.859-36.201v-143.697c0-45.823 18.575-87.313 48.607-117.346 30.033-30.033 71.523-48.607 117.346-48.607 17.158 0 33.716 2.605 49.286 7.446z" fill="#8b5e5e"/><g><path d="m264.826 3.554c-10.325 0-19.48 4.997-25.187 12.703-5.707-7.705-14.862-12.703-25.187-12.703-10.325 0-19.48 4.997-25.187 12.703-5.707-7.705-14.862-12.703-25.187-12.703-17.3 0-31.325 14.025-31.325 31.325v7.272c0 38.533 31.237 69.769 69.769 69.769h23.858c38.533 0 69.769-31.237 69.769-69.769v-7.272c.002-17.3-14.023-31.325-31.323-31.325z" fill="#9d6b6b"/><path d="m248.337 108.395c-6.899 2.292-14.282 3.526-21.958 3.526h-23.855c-38.532 0-69.77-31.238-69.77-69.77v-7.269c0-8.643 3.501-16.484 9.178-22.149 5.665-5.664 13.493-9.178 22.149-9.178 10.324 0 19.476 5.003 25.179 12.704 2.851-3.844 6.568-7.027 10.871-9.241 4.29-2.215 9.165-3.463 14.321-3.463 3.03 0 5.957.433 8.72 1.235-5.168 1.464-9.789 4.251-13.481 7.943-5.665 5.665-9.178 13.506-9.178 22.149v7.269c-.001 30.869 20.048 57.053 47.824 66.244z" fill="#8b5e5e"/></g><g><circle cx="380.224" cy="152.864" fill="#ffd064" r="70.332"/><g fill="#ffc250"><circle cx="380.224" cy="152.864" r="38.424"/><path d="m391.701 222.264c-3.73.62-7.57.94-11.48.94-38.84 0-70.33-31.49-70.33-70.34 0-38.84 31.49-70.33 70.33-70.33 3.91 0 7.75.32 11.48.94-33.39 5.47-58.86 34.45-58.86 69.39s25.47 63.93 58.86 69.4z"/></g></g><g><path d="m368.75 473.32v11.03c0 .53-.02 1.05-.07 1.57-1.83.9-3.68 1.78-5.54 2.64-11.09 5.12-22.61 9.47-34.49 12.97h-83.38c-9.49 0-17.18-7.69-17.18-17.18v-11.03c0-9.49 7.69-17.18 17.18-17.18l54.64-13.8 51.66 13.8c9.49 0 17.18 7.69 17.18 17.18z" fill="#ffd064"/><path d="m285.666 501.531h-40.4c-9.49 0-17.18-7.69-17.18-17.18v-11.03c0-9.49 7.69-17.18 17.18-17.18h40.4c-9.49 0-17.18 7.69-17.18 17.18v11.03c0 9.49 7.69 17.18 17.18 17.18z" fill="#ffc250"/></g><g><path d="m351.571 456.143h-106.302c-9.489 0-17.182-7.693-17.182-17.182v-11.028c0-9.489 7.693-17.182 17.182-17.182l54.647-13.8 51.654 13.8c9.489 0 17.182 7.693 17.182 17.182v11.028c.001 9.49-7.692 17.182-17.181 17.182z" fill="#ffd064"/><path d="m285.668 456.141h-40.4c-9.49 0-17.18-7.69-17.18-17.18v-11.03c0-9.49 7.69-17.18 17.18-17.18h40.4c-9.49 0-17.18 7.69-17.18 17.18v11.03c0 9.49 7.69 17.18 17.18 17.18z" fill="#ffc250"/></g><g><path d="m234.627 501.535h-106.302c-9.489 0-17.182-7.693-17.182-17.182v-11.028c0-9.489 7.693-17.182 17.182-17.182l54.647-13.8 51.654 13.8c9.489 0 17.182 7.693 17.182 17.182v11.028c.001 9.49-7.692 17.182-17.181 17.182z" fill="#ffd064"/><path d="m168.724 501.533h-40.4c-9.49 0-17.18-7.69-17.18-17.18v-11.03c0-9.49 7.69-17.18 17.18-17.18h40.4c-9.49 0-17.18 7.69-17.18 17.18v11.03c0 9.49 7.69 17.18 17.18 17.18z" fill="#ffc250"/></g><g><path d="m234.629 456.145h-106.302c-9.489 0-17.182-7.693-17.182-17.182v-11.028c0-9.489 7.693-17.182 17.182-17.182h106.301c9.489 0 17.182 7.693 17.182 17.182v11.028c0 9.49-7.692 17.182-17.181 17.182z" fill="#ffd064"/><path d="m168.725 456.143h-40.4c-9.49 0-17.18-7.69-17.18-17.18v-11.03c0-9.49 7.69-17.18 17.18-17.18h40.4c-9.49 0-17.18 7.69-17.18 17.18v11.03c0 9.49 7.69 17.18 17.18 17.18z" fill="#ffc250"/></g><g><path d="m351.571 410.754h-106.302c-9.489 0-17.182-7.693-17.182-17.182v-11.028c0-9.489 7.693-17.182 17.182-17.182l54.647-13.8 51.654 13.8c9.489 0 17.182 7.693 17.182 17.182v11.028c.001 9.489-7.692 17.182-17.181 17.182z" fill="#ffd064"/><path d="m285.668 410.752h-40.4c-9.49 0-17.18-7.69-17.18-17.18v-11.03c0-9.49 7.69-17.18 17.18-17.18h40.4c-9.49 0-17.18 7.69-17.18 17.18v11.03c0 9.49 7.69 17.18 17.18 17.18z" fill="#ffc250"/></g><g><path d="m351.573 365.364h-106.302c-9.489 0-17.182-7.693-17.182-17.182v-11.028c0-9.489 7.693-17.182 17.182-17.182h106.301c9.489 0 17.182 7.693 17.182 17.182v11.028c0 9.489-7.692 17.182-17.181 17.182z" fill="#ffd064"/><path d="m285.669 365.362h-40.4c-9.49 0-17.18-7.69-17.18-17.18v-11.03c0-9.49 7.69-17.18 17.18-17.18h40.4c-9.49 0-17.18 7.69-17.18 17.18v11.03c0 9.49 7.69 17.18 17.18 17.18z" fill="#ffc250"/></g></g></svg>